<svg xmlns="http://www.w3.org/2000/svg" width="56.013" height="112.026" viewBox="0 0 56.013 112.026">
  <g id="Group_12459" data-name="Group 12459" transform="translate(-653.418 -5978.005)">
    <g id="spine_1_" data-name="spine (1)" transform="translate(636.418 5976.005)">
      <path id="Path_459" data-name="Path 459" d="M29.468,47A7.469,7.469,0,0,1,22,54.468V69.405h5.6l.321.321a18.03,18.03,0,0,0,25.5,0l.321-.321h5.6V54.468A7.469,7.469,0,0,1,51.874,47" transform="translate(4.335 39.019)" fill="#77d1b5"/>
      <g id="Group_266" data-name="Group 266" transform="translate(17 86.019)">
        <path id="Path_460" data-name="Path 460" d="M38.07,58.2a18.028,18.028,0,0,0,12.749-5.28l.321-.321v-.71A7.4,7.4,0,0,1,49.272,47h-.246a17.94,17.94,0,0,1-21.912,0h-.246A7.4,7.4,0,0,1,25,51.892v.71l.321.321A18.028,18.028,0,0,0,38.07,58.2Z" transform="translate(-10.063 -47)" fill="#289976"/>
        <path id="Path_461" data-name="Path 461" d="M42,53h9.335v7.468H42Z" transform="translate(4.677 -41.797)" fill="#289976"/>
        <path id="Path_462" data-name="Path 462" d="M17,53h9.335v7.468H17Z" transform="translate(-17 -41.797)" fill="#289976"/>
      </g>
      <path id="Path_463" data-name="Path 463" d="M29.468,34A7.469,7.469,0,0,1,22,41.468V56.405h5.6l.321.321a18.03,18.03,0,0,0,25.5,0l.321-.321h5.6V41.468A7.469,7.469,0,0,1,51.874,34" transform="translate(4.335 27.747)" fill="#77d1b5"/>
      <path id="Path_464" data-name="Path 464" d="M38.07,45.2a18.028,18.028,0,0,0,12.749-5.28l.321-.321v-.709A7.4,7.4,0,0,1,49.272,34h-.246a17.94,17.94,0,0,1-21.912,0h-.246A7.4,7.4,0,0,1,25,38.892V39.6l.321.321A18.028,18.028,0,0,0,38.07,45.2Z" transform="translate(6.937 27.747)" fill="#289976"/>
      <path id="Path_465" data-name="Path 465" d="M42,40h9.335v7.468H42Z" transform="translate(21.677 32.95)" fill="#289976"/>
      <path id="Path_466" data-name="Path 466" d="M17,40h9.335v7.468H17Z" transform="translate(0 32.95)" fill="#289976"/>
      <path id="Path_467" data-name="Path 467" d="M29.468,21A7.469,7.469,0,0,1,22,28.468V43.405h5.6l.321.321a18.03,18.03,0,0,0,25.5,0l.321-.321h5.6V28.468A7.469,7.469,0,0,1,51.874,21" transform="translate(4.335 16.475)" fill="#77d1b5"/>
      <path id="Path_468" data-name="Path 468" d="M38.07,32.2a18.028,18.028,0,0,0,12.749-5.28l.321-.321v-.709A7.4,7.4,0,0,1,49.272,21h-.246a17.94,17.94,0,0,1-21.912,0h-.246A7.4,7.4,0,0,1,25,25.892V26.6l.321.321A18.028,18.028,0,0,0,38.07,32.2Z" transform="translate(6.937 16.475)" fill="#289976"/>
      <path id="Path_469" data-name="Path 469" d="M42,27h9.335v7.468H42Z" transform="translate(21.677 21.677)" fill="#289976"/>
      <path id="Path_470" data-name="Path 470" d="M17,27h9.335v7.468H17Z" transform="translate(0 21.677)" fill="#289976"/>
      <path id="Path_471" data-name="Path 471" d="M29.468,8A7.469,7.469,0,0,1,22,15.468V30.405h5.6l.321.321a18.03,18.03,0,0,0,25.5,0l.321-.321h5.6V15.468A7.469,7.469,0,0,1,51.874,8" transform="translate(4.335 5.203)" fill="#77d1b5"/>
      <path id="Path_472" data-name="Path 472" d="M38.07,19.2a18.028,18.028,0,0,0,12.749-5.28l.321-.321v-.709A7.4,7.4,0,0,1,49.272,8h-.246A18.021,18.021,0,0,1,38.07,11.734,18.025,18.025,0,0,1,27.114,8h-.246A7.4,7.4,0,0,1,25,12.892V13.6l.321.321A18.028,18.028,0,0,0,38.07,19.2Z" transform="translate(6.937 5.203)" fill="#289976"/>
      <path id="Path_473" data-name="Path 473" d="M42,14h9.335v7.468H42Z" transform="translate(21.677 10.405)" fill="#289976"/>
      <path id="Path_474" data-name="Path 474" d="M17,14h9.335v7.468H17Z" transform="translate(0 10.405)" fill="#289976"/>
      <path id="Path_475" data-name="Path 475" d="M22,2v9.335h5.6l.321.321a18.028,18.028,0,0,0,12.749,5.28,18.028,18.028,0,0,0,12.749-5.28l.321-.321h5.6V2" transform="translate(4.335 0)" fill="#77d1b5"/>
      <path id="Path_476" data-name="Path 476" d="M42,2h9.335V7.6H42Z" transform="translate(21.677 0)" fill="#289976"/>
      <path id="Path_477" data-name="Path 477" d="M17,2h9.335V7.6H17Z" transform="translate(0 0)" fill="#289976"/>
    </g>
  </g>
</svg>
