<svg xmlns="http://www.w3.org/2000/svg" width="130" height="160" viewBox="0 0 130 160">
  <g id="Group_1200" data-name="Group 1200" transform="translate(-158 -2410)">
    <circle id="Ellipse_1" data-name="Ellipse 1" cx="5" cy="5" r="5" transform="translate(158 2410)" fill="#289976"/>
    <circle id="Ellipse_1-2" data-name="Ellipse 1" cx="5" cy="5" r="5" transform="translate(188 2410)" fill="#289976"/>
    <circle id="Ellipse_1-3" data-name="Ellipse 1" cx="5" cy="5" r="5" transform="translate(218 2410)" fill="#289976"/>
    <circle id="Ellipse_1-4" data-name="Ellipse 1" cx="5" cy="5" r="5" transform="translate(248 2410)" fill="#289976"/>
    <circle id="Ellipse_1-5" data-name="Ellipse 1" cx="5" cy="5" r="5" transform="translate(278 2410)" fill="#289976"/>
    <circle id="Ellipse_1-6" data-name="Ellipse 1" cx="5" cy="5" r="5" transform="translate(158 2435)" fill="#289976"/>
    <circle id="Ellipse_1-7" data-name="Ellipse 1" cx="5" cy="5" r="5" transform="translate(188 2435)" fill="#289976"/>
    <circle id="Ellipse_1-8" data-name="Ellipse 1" cx="5" cy="5" r="5" transform="translate(218 2435)" fill="#289976"/>
    <circle id="Ellipse_1-9" data-name="Ellipse 1" cx="5" cy="5" r="5" transform="translate(248 2435)" fill="#289976"/>
    <circle id="Ellipse_1-10" data-name="Ellipse 1" cx="5" cy="5" r="5" transform="translate(278 2435)" fill="#289976"/>
    <circle id="Ellipse_1-11" data-name="Ellipse 1" cx="5" cy="5" r="5" transform="translate(158 2460)" fill="#289976"/>
    <circle id="Ellipse_1-12" data-name="Ellipse 1" cx="5" cy="5" r="5" transform="translate(188 2460)" fill="#289976"/>
    <circle id="Ellipse_1-13" data-name="Ellipse 1" cx="5" cy="5" r="5" transform="translate(218 2460)" fill="#289976"/>
    <circle id="Ellipse_1-14" data-name="Ellipse 1" cx="5" cy="5" r="5" transform="translate(248 2460)" fill="#289976"/>
    <circle id="Ellipse_1-15" data-name="Ellipse 1" cx="5" cy="5" r="5" transform="translate(278 2460)" fill="#289976"/>
    <circle id="Ellipse_1-16" data-name="Ellipse 1" cx="5" cy="5" r="5" transform="translate(158 2485)" fill="#289976"/>
    <circle id="Ellipse_1-17" data-name="Ellipse 1" cx="5" cy="5" r="5" transform="translate(188 2485)" fill="#289976"/>
    <circle id="Ellipse_1-18" data-name="Ellipse 1" cx="5" cy="5" r="5" transform="translate(218 2485)" fill="#289976"/>
    <circle id="Ellipse_1-19" data-name="Ellipse 1" cx="5" cy="5" r="5" transform="translate(248 2485)" fill="#289976"/>
    <circle id="Ellipse_1-20" data-name="Ellipse 1" cx="5" cy="5" r="5" transform="translate(278 2485)" fill="#289976"/>
    <circle id="Ellipse_1-21" data-name="Ellipse 1" cx="5" cy="5" r="5" transform="translate(158 2510)" fill="#289976"/>
    <circle id="Ellipse_1-22" data-name="Ellipse 1" cx="5" cy="5" r="5" transform="translate(188 2510)" fill="#289976"/>
    <circle id="Ellipse_1-23" data-name="Ellipse 1" cx="5" cy="5" r="5" transform="translate(218 2510)" fill="#289976"/>
    <circle id="Ellipse_1-24" data-name="Ellipse 1" cx="5" cy="5" r="5" transform="translate(248 2510)" fill="#289976"/>
    <circle id="Ellipse_1-25" data-name="Ellipse 1" cx="5" cy="5" r="5" transform="translate(278 2510)" fill="#289976"/>
    <circle id="Ellipse_1-26" data-name="Ellipse 1" cx="5" cy="5" r="5" transform="translate(158 2535)" fill="#289976"/>
    <circle id="Ellipse_1-27" data-name="Ellipse 1" cx="5" cy="5" r="5" transform="translate(188 2535)" fill="#289976"/>
    <circle id="Ellipse_1-28" data-name="Ellipse 1" cx="5" cy="5" r="5" transform="translate(218 2535)" fill="#289976"/>
    <circle id="Ellipse_1-29" data-name="Ellipse 1" cx="5" cy="5" r="5" transform="translate(248 2535)" fill="#289976"/>
    <circle id="Ellipse_1-30" data-name="Ellipse 1" cx="5" cy="5" r="5" transform="translate(278 2535)" fill="#289976"/>
    <circle id="Ellipse_1-31" data-name="Ellipse 1" cx="5" cy="5" r="5" transform="translate(158 2560)" fill="#289976"/>
    <circle id="Ellipse_1-32" data-name="Ellipse 1" cx="5" cy="5" r="5" transform="translate(188 2560)" fill="#289976"/>
    <circle id="Ellipse_1-33" data-name="Ellipse 1" cx="5" cy="5" r="5" transform="translate(218 2560)" fill="#289976"/>
    <circle id="Ellipse_1-34" data-name="Ellipse 1" cx="5" cy="5" r="5" transform="translate(248 2560)" fill="#289976"/>
    <circle id="Ellipse_1-35" data-name="Ellipse 1" cx="5" cy="5" r="5" transform="translate(278 2560)" fill="#289976"/>
  </g>
</svg>
