<svg xmlns="http://www.w3.org/2000/svg" width="79" height="185" viewBox="0 0 79 185">
  <g id="Group_12459" data-name="Group 12459" transform="translate(-4364 -2472)">
    <circle id="Ellipse_1" data-name="Ellipse 1" cx="5" cy="5" r="5" transform="translate(4364 2472)" fill="#a227ff"/>
    <circle id="Ellipse_1-2" data-name="Ellipse 1" cx="5" cy="5" r="5" transform="translate(4387 2472)" fill="#a227ff"/>
    <circle id="Ellipse_1-3" data-name="Ellipse 1" cx="5" cy="5" r="5" transform="translate(4410 2472)" fill="#a227ff"/>
    <circle id="Ellipse_1-4" data-name="Ellipse 1" cx="5" cy="5" r="5" transform="translate(4433 2472)" fill="#a227ff"/>
    <circle id="Ellipse_1-5" data-name="Ellipse 1" cx="5" cy="5" r="5" transform="translate(4364 2497)" fill="#a227ff"/>
    <circle id="Ellipse_1-6" data-name="Ellipse 1" cx="5" cy="5" r="5" transform="translate(4387 2497)" fill="#a227ff"/>
    <circle id="Ellipse_1-7" data-name="Ellipse 1" cx="5" cy="5" r="5" transform="translate(4410 2497)" fill="#a227ff"/>
    <circle id="Ellipse_1-8" data-name="Ellipse 1" cx="5" cy="5" r="5" transform="translate(4433 2497)" fill="#a227ff"/>
    <circle id="Ellipse_1-9" data-name="Ellipse 1" cx="5" cy="5" r="5" transform="translate(4364 2522)" fill="#a227ff"/>
    <circle id="Ellipse_1-10" data-name="Ellipse 1" cx="5" cy="5" r="5" transform="translate(4387 2522)" fill="#a227ff"/>
    <circle id="Ellipse_1-11" data-name="Ellipse 1" cx="5" cy="5" r="5" transform="translate(4410 2522)" fill="#a227ff"/>
    <circle id="Ellipse_1-12" data-name="Ellipse 1" cx="5" cy="5" r="5" transform="translate(4433 2522)" fill="#a227ff"/>
    <circle id="Ellipse_1-13" data-name="Ellipse 1" cx="5" cy="5" r="5" transform="translate(4364 2547)" fill="#a227ff"/>
    <circle id="Ellipse_1-14" data-name="Ellipse 1" cx="5" cy="5" r="5" transform="translate(4387 2547)" fill="#a227ff"/>
    <circle id="Ellipse_1-15" data-name="Ellipse 1" cx="5" cy="5" r="5" transform="translate(4410 2547)" fill="#a227ff"/>
    <circle id="Ellipse_1-16" data-name="Ellipse 1" cx="5" cy="5" r="5" transform="translate(4433 2547)" fill="#a227ff"/>
    <circle id="Ellipse_1-17" data-name="Ellipse 1" cx="5" cy="5" r="5" transform="translate(4364 2572)" fill="#a227ff"/>
    <circle id="Ellipse_1-18" data-name="Ellipse 1" cx="5" cy="5" r="5" transform="translate(4387 2572)" fill="#a227ff"/>
    <circle id="Ellipse_1-19" data-name="Ellipse 1" cx="5" cy="5" r="5" transform="translate(4410 2572)" fill="#a227ff"/>
    <circle id="Ellipse_1-20" data-name="Ellipse 1" cx="5" cy="5" r="5" transform="translate(4433 2572)" fill="#a227ff"/>
    <circle id="Ellipse_1-21" data-name="Ellipse 1" cx="5" cy="5" r="5" transform="translate(4364 2597)" fill="#a227ff"/>
    <circle id="Ellipse_1-22" data-name="Ellipse 1" cx="5" cy="5" r="5" transform="translate(4387 2597)" fill="#a227ff"/>
    <circle id="Ellipse_1-23" data-name="Ellipse 1" cx="5" cy="5" r="5" transform="translate(4410 2597)" fill="#a227ff"/>
    <circle id="Ellipse_1-24" data-name="Ellipse 1" cx="5" cy="5" r="5" transform="translate(4433 2597)" fill="#a227ff"/>
    <circle id="Ellipse_1-25" data-name="Ellipse 1" cx="5" cy="5" r="5" transform="translate(4364 2622)" fill="#a227ff"/>
    <circle id="Ellipse_1-26" data-name="Ellipse 1" cx="5" cy="5" r="5" transform="translate(4387 2622)" fill="#a227ff"/>
    <circle id="Ellipse_1-27" data-name="Ellipse 1" cx="5" cy="5" r="5" transform="translate(4410 2622)" fill="#a227ff"/>
    <circle id="Ellipse_1-28" data-name="Ellipse 1" cx="5" cy="5" r="5" transform="translate(4433 2622)" fill="#a227ff"/>
    <circle id="Ellipse_1-29" data-name="Ellipse 1" cx="5" cy="5" r="5" transform="translate(4364 2647)" fill="#a227ff"/>
    <circle id="Ellipse_1-30" data-name="Ellipse 1" cx="5" cy="5" r="5" transform="translate(4387 2647)" fill="#a227ff"/>
    <circle id="Ellipse_1-31" data-name="Ellipse 1" cx="5" cy="5" r="5" transform="translate(4410 2647)" fill="#a227ff"/>
    <circle id="Ellipse_1-32" data-name="Ellipse 1" cx="5" cy="5" r="5" transform="translate(4433 2647)" fill="#a227ff"/>
  </g>
</svg>
