<svg xmlns="http://www.w3.org/2000/svg" width="160" height="160" viewBox="0 0 160 160">
  <g id="Group_12458" data-name="Group 12458" transform="translate(64 -3685)">
    <circle id="Ellipse_1" data-name="Ellipse 1" cx="5" cy="5" r="5" transform="translate(-4 3685)" fill="#289976"/>
    <circle id="Ellipse_1-2" data-name="Ellipse 1" cx="5" cy="5" r="5" transform="translate(26 3685)" fill="#289976"/>
    <circle id="Ellipse_1-3" data-name="Ellipse 1" cx="5" cy="5" r="5" transform="translate(56 3685)" fill="#289976"/>
    <circle id="Ellipse_1-4" data-name="Ellipse 1" cx="5" cy="5" r="5" transform="translate(86 3685)" fill="#289976"/>
    <circle id="Ellipse_1-5" data-name="Ellipse 1" cx="5" cy="5" r="5" transform="translate(-4 3710)" fill="#289976"/>
    <circle id="Ellipse_1-6" data-name="Ellipse 1" cx="5" cy="5" r="5" transform="translate(26 3710)" fill="#289976"/>
    <circle id="Ellipse_1-7" data-name="Ellipse 1" cx="5" cy="5" r="5" transform="translate(56 3710)" fill="#289976"/>
    <circle id="Ellipse_1-8" data-name="Ellipse 1" cx="5" cy="5" r="5" transform="translate(86 3710)" fill="#289976"/>
    <circle id="Ellipse_1-9" data-name="Ellipse 1" cx="5" cy="5" r="5" transform="translate(-4 3735)" fill="#289976"/>
    <circle id="Ellipse_1-10" data-name="Ellipse 1" cx="5" cy="5" r="5" transform="translate(26 3735)" fill="#289976"/>
    <circle id="Ellipse_1-11" data-name="Ellipse 1" cx="5" cy="5" r="5" transform="translate(56 3735)" fill="#289976"/>
    <circle id="Ellipse_1-12" data-name="Ellipse 1" cx="5" cy="5" r="5" transform="translate(86 3735)" fill="#289976"/>
    <circle id="Ellipse_1-13" data-name="Ellipse 1" cx="5" cy="5" r="5" transform="translate(-4 3760)" fill="#289976"/>
    <circle id="Ellipse_1-14" data-name="Ellipse 1" cx="5" cy="5" r="5" transform="translate(26 3760)" fill="#289976"/>
    <circle id="Ellipse_1-15" data-name="Ellipse 1" cx="5" cy="5" r="5" transform="translate(56 3760)" fill="#289976"/>
    <circle id="Ellipse_1-16" data-name="Ellipse 1" cx="5" cy="5" r="5" transform="translate(86 3760)" fill="#289976"/>
    <circle id="Ellipse_1-17" data-name="Ellipse 1" cx="5" cy="5" r="5" transform="translate(-4 3785)" fill="#289976"/>
    <circle id="Ellipse_1-18" data-name="Ellipse 1" cx="5" cy="5" r="5" transform="translate(26 3785)" fill="#289976"/>
    <circle id="Ellipse_1-19" data-name="Ellipse 1" cx="5" cy="5" r="5" transform="translate(56 3785)" fill="#289976"/>
    <circle id="Ellipse_1-20" data-name="Ellipse 1" cx="5" cy="5" r="5" transform="translate(86 3785)" fill="#289976"/>
    <circle id="Ellipse_1-21" data-name="Ellipse 1" cx="5" cy="5" r="5" transform="translate(-4 3810)" fill="#289976"/>
    <circle id="Ellipse_1-22" data-name="Ellipse 1" cx="5" cy="5" r="5" transform="translate(26 3810)" fill="#289976"/>
    <circle id="Ellipse_1-23" data-name="Ellipse 1" cx="5" cy="5" r="5" transform="translate(56 3810)" fill="#289976"/>
    <circle id="Ellipse_1-24" data-name="Ellipse 1" cx="5" cy="5" r="5" transform="translate(86 3810)" fill="#289976"/>
    <circle id="Ellipse_1-25" data-name="Ellipse 1" cx="5" cy="5" r="5" transform="translate(-4 3835)" fill="#289976"/>
    <circle id="Ellipse_1-26" data-name="Ellipse 1" cx="5" cy="5" r="5" transform="translate(26 3835)" fill="#289976"/>
    <circle id="Ellipse_1-27" data-name="Ellipse 1" cx="5" cy="5" r="5" transform="translate(56 3835)" fill="#289976"/>
    <circle id="Ellipse_1-28" data-name="Ellipse 1" cx="5" cy="5" r="5" transform="translate(86 3835)" fill="#289976"/>
    <circle id="Ellipse_1-29" data-name="Ellipse 1" cx="5" cy="5" r="5" transform="translate(-64 3685)" fill="#289976"/>
    <circle id="Ellipse_1-30" data-name="Ellipse 1" cx="5" cy="5" r="5" transform="translate(-34 3685)" fill="#289976"/>
    <circle id="Ellipse_1-31" data-name="Ellipse 1" cx="5" cy="5" r="5" transform="translate(-64 3710)" fill="#289976"/>
    <circle id="Ellipse_1-32" data-name="Ellipse 1" cx="5" cy="5" r="5" transform="translate(-34 3710)" fill="#289976"/>
    <circle id="Ellipse_1-33" data-name="Ellipse 1" cx="5" cy="5" r="5" transform="translate(-64 3735)" fill="#289976"/>
    <circle id="Ellipse_1-34" data-name="Ellipse 1" cx="5" cy="5" r="5" transform="translate(-34 3735)" fill="#289976"/>
    <circle id="Ellipse_1-35" data-name="Ellipse 1" cx="5" cy="5" r="5" transform="translate(-64 3760)" fill="#289976"/>
    <circle id="Ellipse_1-36" data-name="Ellipse 1" cx="5" cy="5" r="5" transform="translate(-34 3760)" fill="#289976"/>
    <circle id="Ellipse_1-37" data-name="Ellipse 1" cx="5" cy="5" r="5" transform="translate(-64 3785)" fill="#289976"/>
    <circle id="Ellipse_1-38" data-name="Ellipse 1" cx="5" cy="5" r="5" transform="translate(-34 3785)" fill="#289976"/>
    <circle id="Ellipse_1-39" data-name="Ellipse 1" cx="5" cy="5" r="5" transform="translate(-64 3810)" fill="#289976"/>
    <circle id="Ellipse_1-40" data-name="Ellipse 1" cx="5" cy="5" r="5" transform="translate(-34 3810)" fill="#289976"/>
    <circle id="Ellipse_1-41" data-name="Ellipse 1" cx="5" cy="5" r="5" transform="translate(-64 3835)" fill="#289976"/>
    <circle id="Ellipse_1-42" data-name="Ellipse 1" cx="5" cy="5" r="5" transform="translate(-34 3835)" fill="#289976"/>
  </g>
</svg>
