<svg xmlns="http://www.w3.org/2000/svg" width="148" height="185" viewBox="0 0 148 185">
  <g id="Group_12454" data-name="Group 12454" transform="translate(-1647 -449)">
    <circle id="Ellipse_1" data-name="Ellipse 1" cx="5" cy="5" r="5" transform="translate(1647 449)" fill="#a227ff"/>
    <circle id="Ellipse_1-2" data-name="Ellipse 1" cx="5" cy="5" r="5" transform="translate(1670 449)" fill="#a227ff"/>
    <circle id="Ellipse_1-3" data-name="Ellipse 1" cx="5" cy="5" r="5" transform="translate(1693 449)" fill="#a227ff"/>
    <circle id="Ellipse_1-4" data-name="Ellipse 1" cx="5" cy="5" r="5" transform="translate(1716 449)" fill="#a227ff"/>
    <circle id="Ellipse_1-5" data-name="Ellipse 1" cx="5" cy="5" r="5" transform="translate(1739 449)" fill="#a227ff"/>
    <circle id="Ellipse_1-6" data-name="Ellipse 1" cx="5" cy="5" r="5" transform="translate(1762 449)" fill="#a227ff"/>
    <circle id="Ellipse_1-7" data-name="Ellipse 1" cx="5" cy="5" r="5" transform="translate(1785 449)" fill="#a227ff"/>
    <circle id="Ellipse_1-8" data-name="Ellipse 1" cx="5" cy="5" r="5" transform="translate(1647 474)" fill="#a227ff"/>
    <circle id="Ellipse_1-9" data-name="Ellipse 1" cx="5" cy="5" r="5" transform="translate(1670 474)" fill="#a227ff"/>
    <circle id="Ellipse_1-10" data-name="Ellipse 1" cx="5" cy="5" r="5" transform="translate(1693 474)" fill="#a227ff"/>
    <circle id="Ellipse_1-11" data-name="Ellipse 1" cx="5" cy="5" r="5" transform="translate(1716 474)" fill="#a227ff"/>
    <circle id="Ellipse_1-12" data-name="Ellipse 1" cx="5" cy="5" r="5" transform="translate(1739 474)" fill="#a227ff"/>
    <circle id="Ellipse_1-13" data-name="Ellipse 1" cx="5" cy="5" r="5" transform="translate(1762 474)" fill="#a227ff"/>
    <circle id="Ellipse_1-14" data-name="Ellipse 1" cx="5" cy="5" r="5" transform="translate(1785 474)" fill="#a227ff"/>
    <circle id="Ellipse_1-15" data-name="Ellipse 1" cx="5" cy="5" r="5" transform="translate(1647 499)" fill="#a227ff"/>
    <circle id="Ellipse_1-16" data-name="Ellipse 1" cx="5" cy="5" r="5" transform="translate(1670 499)" fill="#a227ff"/>
    <circle id="Ellipse_1-17" data-name="Ellipse 1" cx="5" cy="5" r="5" transform="translate(1693 499)" fill="#a227ff"/>
    <circle id="Ellipse_1-18" data-name="Ellipse 1" cx="5" cy="5" r="5" transform="translate(1716 499)" fill="#a227ff"/>
    <circle id="Ellipse_1-19" data-name="Ellipse 1" cx="5" cy="5" r="5" transform="translate(1739 499)" fill="#a227ff"/>
    <circle id="Ellipse_1-20" data-name="Ellipse 1" cx="5" cy="5" r="5" transform="translate(1762 499)" fill="#a227ff"/>
    <circle id="Ellipse_1-21" data-name="Ellipse 1" cx="5" cy="5" r="5" transform="translate(1785 499)" fill="#a227ff"/>
    <circle id="Ellipse_1-22" data-name="Ellipse 1" cx="5" cy="5" r="5" transform="translate(1647 524)" fill="#a227ff"/>
    <circle id="Ellipse_1-23" data-name="Ellipse 1" cx="5" cy="5" r="5" transform="translate(1670 524)" fill="#a227ff"/>
    <circle id="Ellipse_1-24" data-name="Ellipse 1" cx="5" cy="5" r="5" transform="translate(1693 524)" fill="#a227ff"/>
    <circle id="Ellipse_1-25" data-name="Ellipse 1" cx="5" cy="5" r="5" transform="translate(1716 524)" fill="#a227ff"/>
    <circle id="Ellipse_1-26" data-name="Ellipse 1" cx="5" cy="5" r="5" transform="translate(1739 524)" fill="#a227ff"/>
    <circle id="Ellipse_1-27" data-name="Ellipse 1" cx="5" cy="5" r="5" transform="translate(1762 524)" fill="#a227ff"/>
    <circle id="Ellipse_1-28" data-name="Ellipse 1" cx="5" cy="5" r="5" transform="translate(1785 524)" fill="#a227ff"/>
    <circle id="Ellipse_1-29" data-name="Ellipse 1" cx="5" cy="5" r="5" transform="translate(1647 549)" fill="#a227ff"/>
    <circle id="Ellipse_1-30" data-name="Ellipse 1" cx="5" cy="5" r="5" transform="translate(1670 549)" fill="#a227ff"/>
    <circle id="Ellipse_1-31" data-name="Ellipse 1" cx="5" cy="5" r="5" transform="translate(1693 549)" fill="#a227ff"/>
    <circle id="Ellipse_1-32" data-name="Ellipse 1" cx="5" cy="5" r="5" transform="translate(1716 549)" fill="#a227ff"/>
    <circle id="Ellipse_1-33" data-name="Ellipse 1" cx="5" cy="5" r="5" transform="translate(1739 549)" fill="#a227ff"/>
    <circle id="Ellipse_1-34" data-name="Ellipse 1" cx="5" cy="5" r="5" transform="translate(1762 549)" fill="#a227ff"/>
    <circle id="Ellipse_1-35" data-name="Ellipse 1" cx="5" cy="5" r="5" transform="translate(1785 549)" fill="#a227ff"/>
    <circle id="Ellipse_1-36" data-name="Ellipse 1" cx="5" cy="5" r="5" transform="translate(1647 574)" fill="#a227ff"/>
    <circle id="Ellipse_1-37" data-name="Ellipse 1" cx="5" cy="5" r="5" transform="translate(1670 574)" fill="#a227ff"/>
    <circle id="Ellipse_1-38" data-name="Ellipse 1" cx="5" cy="5" r="5" transform="translate(1693 574)" fill="#a227ff"/>
    <circle id="Ellipse_1-39" data-name="Ellipse 1" cx="5" cy="5" r="5" transform="translate(1716 574)" fill="#a227ff"/>
    <circle id="Ellipse_1-40" data-name="Ellipse 1" cx="5" cy="5" r="5" transform="translate(1739 574)" fill="#a227ff"/>
    <circle id="Ellipse_1-41" data-name="Ellipse 1" cx="5" cy="5" r="5" transform="translate(1762 574)" fill="#a227ff"/>
    <circle id="Ellipse_1-42" data-name="Ellipse 1" cx="5" cy="5" r="5" transform="translate(1785 574)" fill="#a227ff"/>
    <circle id="Ellipse_1-43" data-name="Ellipse 1" cx="5" cy="5" r="5" transform="translate(1647 599)" fill="#a227ff"/>
    <circle id="Ellipse_1-44" data-name="Ellipse 1" cx="5" cy="5" r="5" transform="translate(1670 599)" fill="#a227ff"/>
    <circle id="Ellipse_1-45" data-name="Ellipse 1" cx="5" cy="5" r="5" transform="translate(1693 599)" fill="#a227ff"/>
    <circle id="Ellipse_1-46" data-name="Ellipse 1" cx="5" cy="5" r="5" transform="translate(1716 599)" fill="#a227ff"/>
    <circle id="Ellipse_1-47" data-name="Ellipse 1" cx="5" cy="5" r="5" transform="translate(1739 599)" fill="#a227ff"/>
    <circle id="Ellipse_1-48" data-name="Ellipse 1" cx="5" cy="5" r="5" transform="translate(1762 599)" fill="#a227ff"/>
    <circle id="Ellipse_1-49" data-name="Ellipse 1" cx="5" cy="5" r="5" transform="translate(1785 599)" fill="#a227ff"/>
    <circle id="Ellipse_1-50" data-name="Ellipse 1" cx="5" cy="5" r="5" transform="translate(1647 624)" fill="#a227ff"/>
    <circle id="Ellipse_1-51" data-name="Ellipse 1" cx="5" cy="5" r="5" transform="translate(1670 624)" fill="#a227ff"/>
    <circle id="Ellipse_1-52" data-name="Ellipse 1" cx="5" cy="5" r="5" transform="translate(1693 624)" fill="#a227ff"/>
    <circle id="Ellipse_1-53" data-name="Ellipse 1" cx="5" cy="5" r="5" transform="translate(1716 624)" fill="#a227ff"/>
    <circle id="Ellipse_1-54" data-name="Ellipse 1" cx="5" cy="5" r="5" transform="translate(1739 624)" fill="#a227ff"/>
    <circle id="Ellipse_1-55" data-name="Ellipse 1" cx="5" cy="5" r="5" transform="translate(1762 624)" fill="#a227ff"/>
    <circle id="Ellipse_1-56" data-name="Ellipse 1" cx="5" cy="5" r="5" transform="translate(1785 624)" fill="#a227ff"/>
  </g>
</svg>
