<svg xmlns="http://www.w3.org/2000/svg" width="160" height="160" viewBox="0 0 160 160">
  <g id="Group_12455" data-name="Group 12455" transform="translate(36 -1002)">
    <circle id="Ellipse_1" data-name="Ellipse 1" cx="5" cy="5" r="5" transform="translate(-6 1002)" fill="#289976"/>
    <circle id="Ellipse_1-2" data-name="Ellipse 1" cx="5" cy="5" r="5" transform="translate(24 1002)" fill="#289976"/>
    <circle id="Ellipse_1-3" data-name="Ellipse 1" cx="5" cy="5" r="5" transform="translate(54 1002)" fill="#289976"/>
    <circle id="Ellipse_1-4" data-name="Ellipse 1" cx="5" cy="5" r="5" transform="translate(84 1002)" fill="#289976"/>
    <circle id="Ellipse_1-5" data-name="Ellipse 1" cx="5" cy="5" r="5" transform="translate(114 1002)" fill="#289976"/>
    <circle id="Ellipse_1-6" data-name="Ellipse 1" cx="5" cy="5" r="5" transform="translate(-6 1027)" fill="#289976"/>
    <circle id="Ellipse_1-7" data-name="Ellipse 1" cx="5" cy="5" r="5" transform="translate(24 1027)" fill="#289976"/>
    <circle id="Ellipse_1-8" data-name="Ellipse 1" cx="5" cy="5" r="5" transform="translate(54 1027)" fill="#289976"/>
    <circle id="Ellipse_1-9" data-name="Ellipse 1" cx="5" cy="5" r="5" transform="translate(84 1027)" fill="#289976"/>
    <circle id="Ellipse_1-10" data-name="Ellipse 1" cx="5" cy="5" r="5" transform="translate(114 1027)" fill="#289976"/>
    <circle id="Ellipse_1-11" data-name="Ellipse 1" cx="5" cy="5" r="5" transform="translate(-6 1052)" fill="#289976"/>
    <circle id="Ellipse_1-12" data-name="Ellipse 1" cx="5" cy="5" r="5" transform="translate(24 1052)" fill="#289976"/>
    <circle id="Ellipse_1-13" data-name="Ellipse 1" cx="5" cy="5" r="5" transform="translate(54 1052)" fill="#289976"/>
    <circle id="Ellipse_1-14" data-name="Ellipse 1" cx="5" cy="5" r="5" transform="translate(84 1052)" fill="#289976"/>
    <circle id="Ellipse_1-15" data-name="Ellipse 1" cx="5" cy="5" r="5" transform="translate(114 1052)" fill="#289976"/>
    <circle id="Ellipse_1-16" data-name="Ellipse 1" cx="5" cy="5" r="5" transform="translate(-6 1077)" fill="#289976"/>
    <circle id="Ellipse_1-17" data-name="Ellipse 1" cx="5" cy="5" r="5" transform="translate(24 1077)" fill="#289976"/>
    <circle id="Ellipse_1-18" data-name="Ellipse 1" cx="5" cy="5" r="5" transform="translate(54 1077)" fill="#289976"/>
    <circle id="Ellipse_1-19" data-name="Ellipse 1" cx="5" cy="5" r="5" transform="translate(84 1077)" fill="#289976"/>
    <circle id="Ellipse_1-20" data-name="Ellipse 1" cx="5" cy="5" r="5" transform="translate(114 1077)" fill="#289976"/>
    <circle id="Ellipse_1-21" data-name="Ellipse 1" cx="5" cy="5" r="5" transform="translate(-6 1102)" fill="#289976"/>
    <circle id="Ellipse_1-22" data-name="Ellipse 1" cx="5" cy="5" r="5" transform="translate(24 1102)" fill="#289976"/>
    <circle id="Ellipse_1-23" data-name="Ellipse 1" cx="5" cy="5" r="5" transform="translate(54 1102)" fill="#289976"/>
    <circle id="Ellipse_1-24" data-name="Ellipse 1" cx="5" cy="5" r="5" transform="translate(84 1102)" fill="#289976"/>
    <circle id="Ellipse_1-25" data-name="Ellipse 1" cx="5" cy="5" r="5" transform="translate(114 1102)" fill="#289976"/>
    <circle id="Ellipse_1-26" data-name="Ellipse 1" cx="5" cy="5" r="5" transform="translate(-6 1127)" fill="#289976"/>
    <circle id="Ellipse_1-27" data-name="Ellipse 1" cx="5" cy="5" r="5" transform="translate(24 1127)" fill="#289976"/>
    <circle id="Ellipse_1-28" data-name="Ellipse 1" cx="5" cy="5" r="5" transform="translate(54 1127)" fill="#289976"/>
    <circle id="Ellipse_1-29" data-name="Ellipse 1" cx="5" cy="5" r="5" transform="translate(84 1127)" fill="#289976"/>
    <circle id="Ellipse_1-30" data-name="Ellipse 1" cx="5" cy="5" r="5" transform="translate(114 1127)" fill="#289976"/>
    <circle id="Ellipse_1-31" data-name="Ellipse 1" cx="5" cy="5" r="5" transform="translate(-6 1152)" fill="#289976"/>
    <circle id="Ellipse_1-32" data-name="Ellipse 1" cx="5" cy="5" r="5" transform="translate(24 1152)" fill="#289976"/>
    <circle id="Ellipse_1-33" data-name="Ellipse 1" cx="5" cy="5" r="5" transform="translate(54 1152)" fill="#289976"/>
    <circle id="Ellipse_1-34" data-name="Ellipse 1" cx="5" cy="5" r="5" transform="translate(84 1152)" fill="#289976"/>
    <circle id="Ellipse_1-35" data-name="Ellipse 1" cx="5" cy="5" r="5" transform="translate(114 1152)" fill="#289976"/>
    <circle id="Ellipse_1-36" data-name="Ellipse 1" cx="5" cy="5" r="5" transform="translate(-36 1002)" fill="#289976"/>
    <circle id="Ellipse_1-37" data-name="Ellipse 1" cx="5" cy="5" r="5" transform="translate(-36 1027)" fill="#289976"/>
    <circle id="Ellipse_1-38" data-name="Ellipse 1" cx="5" cy="5" r="5" transform="translate(-36 1052)" fill="#289976"/>
    <circle id="Ellipse_1-39" data-name="Ellipse 1" cx="5" cy="5" r="5" transform="translate(-36 1077)" fill="#289976"/>
    <circle id="Ellipse_1-40" data-name="Ellipse 1" cx="5" cy="5" r="5" transform="translate(-36 1102)" fill="#289976"/>
    <circle id="Ellipse_1-41" data-name="Ellipse 1" cx="5" cy="5" r="5" transform="translate(-36 1127)" fill="#289976"/>
    <circle id="Ellipse_1-42" data-name="Ellipse 1" cx="5" cy="5" r="5" transform="translate(-36 1152)" fill="#289976"/>
  </g>
</svg>
