<svg xmlns="http://www.w3.org/2000/svg" width="85.092" height="102.756" viewBox="0 0 85.092 102.756">
  <g id="inhaler_1_" data-name="inhaler (1)" transform="translate(-44.007)">
    <path id="Path_439" data-name="Path 439" d="M77.423,110.525V56.182a2.067,2.067,0,0,0-2.068-2.068H46.075a2.067,2.067,0,0,0-2.068,2.068v87.76a2.067,2.067,0,0,0,2.068,2.068h43.9a2.067,2.067,0,0,0,2.068-2.068V114.661a2.067,2.067,0,0,0-2.068-2.068H79.491a2.068,2.068,0,0,1-2.068-2.068Z" transform="translate(0 -43.254)" fill="#289976"/>
    <path id="Path_440" data-name="Path 440" d="M183.461,118.232H201.84V114.66a2.067,2.067,0,0,0-2.068-2.068H189.287a2.067,2.067,0,0,1-2.068-2.068V56.182a2.067,2.067,0,0,0-2.068-2.068h-3.78v62.029A2.089,2.089,0,0,0,183.461,118.232Z" transform="translate(-109.797 -43.254)" fill="#77d1b5"/>
    <path id="Path_441" data-name="Path 441" d="M87.39,10.86H60.657V2.007A2.007,2.007,0,0,1,62.664,0H85.383A2.007,2.007,0,0,1,87.39,2.007Z" transform="translate(-13.308 0)" fill="#289976"/>
    <path id="Path_442" data-name="Path 442" d="M172.007,0V10.86h4.386V2.068A2.068,2.068,0,0,0,174.325,0Z" transform="translate(-102.311)" fill="#289976"/>
    <path id="Path_443" data-name="Path 443" d="M77.423,62.468H44.007V56.121a2.007,2.007,0,0,1,2.007-2.007h29.4a2.007,2.007,0,0,1,2.007,2.007Z" transform="translate(0 -43.254)" fill="#77d1b5"/>
    <path id="Path_444" data-name="Path 444" d="M181.372,54.114v8.354h5.848V56.182a2.067,2.067,0,0,0-2.068-2.068Z" transform="translate(-109.797 -43.254)" fill="#77d1b5"/>
    <path id="Path_445" data-name="Path 445" d="M283.356,391.371V366.309h14.7a2.007,2.007,0,0,1,2.007,2.007v21.048a2.007,2.007,0,0,1-2.007,2.007Z" transform="translate(-191.313 -292.793)" fill="#77d1b5"/>
    <path id="Path_446" data-name="Path 446" d="M342.673,366.309v25.062h2.736a2.067,2.067,0,0,0,2.068-2.068V368.377a2.067,2.067,0,0,0-2.068-2.068Z" transform="translate(-238.725 -292.793)" fill="#464646"/>
    <g id="Group_253" data-name="Group 253" transform="translate(51.855 77.396)">
      <g id="Group_250" data-name="Group 250" transform="translate(0 14.202)">
        <path id="Path_447" data-name="Path 447" d="M99.28,459.506H84.661a1.551,1.551,0,1,1,0-3.1H99.28a1.551,1.551,0,1,1,0,3.1Z" transform="translate(-83.11 -456.405)" fill="#464646"/>
      </g>
      <g id="Group_251" data-name="Group 251" transform="translate(0 7.101)">
        <path id="Path_448" data-name="Path 448" d="M99.28,424.123H84.661a1.551,1.551,0,0,1,0-3.1H99.28a1.551,1.551,0,1,1,0,3.1Z" transform="translate(-83.11 -421.022)" fill="#464646"/>
      </g>
      <g id="Group_252" data-name="Group 252">
        <path id="Path_449" data-name="Path 449" d="M99.28,388.741H84.661a1.551,1.551,0,1,1,0-3.1H99.28a1.551,1.551,0,1,1,0,3.1Z" transform="translate(-83.11 -385.64)" fill="#464646"/>
      </g>
    </g>
    <g id="Group_257" data-name="Group 257" transform="translate(113.257 84.497)">
      <g id="Group_254" data-name="Group 254">
        <path id="Path_450" data-name="Path 450" d="M391.852,424.123h-1.241a1.551,1.551,0,0,1,0-3.1h1.241a1.551,1.551,0,1,1,0,3.1Z" transform="translate(-389.061 -421.022)" fill="#77d1b5"/>
      </g>
      <g id="Group_255" data-name="Group 255" transform="translate(5.408)">
        <path id="Path_451" data-name="Path 451" d="M419.482,424.123h-1.924a1.551,1.551,0,0,1,0-3.1h1.924a1.551,1.551,0,0,1,0,3.1Z" transform="translate(-416.008 -421.022)" fill="#77d1b5"/>
      </g>
      <g id="Group_256" data-name="Group 256" transform="translate(11.5)">
        <path id="Path_452" data-name="Path 452" d="M449.151,424.123h-1.241a1.551,1.551,0,0,1,0-3.1h1.241a1.551,1.551,0,0,1,0,3.1Z" transform="translate(-446.36 -421.022)" fill="#77d1b5"/>
      </g>
    </g>
    <g id="Group_261" data-name="Group 261" transform="translate(113.257 72.373)">
      <g id="Group_258" data-name="Group 258" transform="translate(0 3.025)">
        <path id="Path_453" data-name="Path 453" d="M390.609,379.116a1.551,1.551,0,0,1-.407-3.047l1.2-.326a1.551,1.551,0,1,1,.815,2.992l-1.2.326A1.547,1.547,0,0,1,390.609,379.116Z" transform="translate(-389.059 -375.688)" fill="#77d1b5"/>
      </g>
      <g id="Group_259" data-name="Group 259" transform="translate(5.221 1.422)">
        <path id="Path_454" data-name="Path 454" d="M416.622,371.309a1.551,1.551,0,0,1-.407-3.047l1.857-.506a1.551,1.551,0,1,1,.815,2.992l-1.857.506a1.555,1.555,0,0,1-.409.055Z" transform="translate(-415.072 -367.701)" fill="#77d1b5"/>
      </g>
      <g id="Group_260" data-name="Group 260" transform="translate(11.102)">
        <path id="Path_455" data-name="Path 455" d="M445.926,364.042a1.551,1.551,0,0,1-.407-3.047l1.2-.326a1.551,1.551,0,1,1,.815,2.992l-1.2.326A1.546,1.546,0,0,1,445.926,364.042Z" transform="translate(-444.376 -360.614)" fill="#77d1b5"/>
      </g>
    </g>
    <g id="Group_265" data-name="Group 265" transform="translate(113.257 93.268)">
      <g id="Group_262" data-name="Group 262">
        <path id="Path_456" data-name="Path 456" d="M391.807,468.156a1.555,1.555,0,0,1-.409-.055l-1.2-.326a1.551,1.551,0,0,1,.815-2.992l1.2.326a1.551,1.551,0,0,1-.407,3.047Z" transform="translate(-389.058 -464.728)" fill="#77d1b5"/>
      </g>
      <g id="Group_263" data-name="Group 263" transform="translate(5.221 1.422)">
        <path id="Path_457" data-name="Path 457" d="M418.481,475.423a1.555,1.555,0,0,1-.409-.055l-1.857-.506a1.551,1.551,0,0,1,.815-2.992l1.857.506a1.551,1.551,0,0,1-.407,3.047Z" transform="translate(-415.072 -471.814)" fill="#77d1b5"/>
      </g>
      <g id="Group_264" data-name="Group 264" transform="translate(11.102 3.025)">
        <path id="Path_458" data-name="Path 458" d="M447.125,483.23a1.553,1.553,0,0,1-.409-.055l-1.2-.326a1.551,1.551,0,1,1,.815-2.992l1.2.326a1.551,1.551,0,0,1-.407,3.047Z" transform="translate(-444.376 -479.802)" fill="#77d1b5"/>
      </g>
    </g>
  </g>
</svg>
